<svg xmlns="http://www.w3.org/2000/svg" viewBox="0 0 300 80" width="300" height="80" fill="none">
  <g transform="translate(15, 12)">
    
    <path d="M15 50 C 10 50, 5 55, 10 60 C 15 65, 25 65, 30 55 C 35 45, 45 65, 50 60 C 55 55, 50 50, 45 50" 
          stroke="#fbbf24" 
          stroke-width="3.5" 
          stroke-linecap="round" 
          stroke-linejoin="round"
          fill="none" />

    <path d="M30 55 Q 30 45 30 35" stroke="#4ade80" stroke-width="3" stroke-linecap="round" />
    
    <path d="M30 45 Q 20 45 15 35 Q 20 25 30 35" 
          fill="#4ade80" />
    <path d="M30 42 Q 40 42 45 32 Q 40 22 30 32" 
          fill="#4ade80" />
          
    <path d="M10 30 Q 30 15 50 10" 
          stroke="#fbbf24" 
          stroke-width="3" 
          stroke-linecap="round" 
          fill="none" />
    <path d="M42 10 L 50 10 L 48 18" 
          stroke="#fbbf24" 
          stroke-width="3" 
          stroke-linecap="round" 
          stroke-linejoin="round" 
          fill="none" />
  </g>

  <text x="75" y="52" font-family="'Segoe UI', Roboto, Helvetica, Arial, sans-serif" font-weight="700" font-size="32">
    <tspan fill="#ffffff">Bachat</tspan><tspan fill="#4ade80">List</tspan><tspan fill="#ffffff" font-size="24" font-weight="400">.com</tspan>
  </text>
  
</svg>
